<svg xmlns="http://www.w3.org/2000/svg" xmlns:xlink="http://www.w3.org/1999/xlink" width="500" zoomAndPan="magnify" viewBox="0 0 375 374.999991" height="500" preserveAspectRatio="xMidYMid meet" version="1.0"><path fill="#2e2e2e" d="M 196.984375 314.246094 L 196.984375 370.066406 C 193.847656 370.238281 190.695312 370.316406 187.519531 370.316406 C 86.550781 370.316406 4.722656 288.46875 4.722656 187.519531 C 4.722656 135.886719 26.121094 89.265625 60.523438 56.03125 L 60.523438 192.203125 C 62.226562 239.207031 89.457031 279.691406 128.753906 300.230469 C 146.328125 309.410156 166.3125 314.589844 187.519531 314.589844 C 190.695312 314.589844 193.867188 314.476562 196.984375 314.246094 Z M 187.519531 0 C 291.070312 0 375.039062 83.949219 375.039062 187.519531 C 375.039062 291.070312 291.070312 375.039062 187.519531 375.039062 C 83.949219 375.039062 0 291.070312 0 187.519531 C 0 83.949219 83.949219 0 187.519531 0 Z M 128.753906 295.21875 L 128.753906 79.800781 C 146.214844 70.277344 166.234375 64.847656 187.519531 64.847656 C 255.273438 64.847656 310.191406 119.765625 310.191406 187.519531 C 310.191406 255.273438 255.273438 310.191406 187.519531 310.191406 C 166.234375 310.191406 146.214844 304.761719 128.753906 295.21875 Z M 128.753906 295.21875 " fill-opacity="1" fill-rule="evenodd"/></svg>